<?xml version="1.0" encoding="UTF-8" standalone="no"?>
<!DOCTYPE svg PUBLIC "-//W3C//DTD SVG 1.1//EN"
 "http://www.w3.org/Graphics/SVG/1.1/DTD/svg11.dtd">
<!-- Generated by graphviz version 2.40.1 (20161225.0304)
 -->
<!-- Title: dependencies Pages: 1 -->
<svg width="5370pt" height="284pt"
 viewBox="0.00 0.00 5370.00 284.00" xmlns="http://www.w3.org/2000/svg" xmlns:xlink="http://www.w3.org/1999/xlink">
<g id="graph0" class="graph" transform="scale(1 1) rotate(0) translate(4 280)">
<title>dependencies</title>
<polygon fill="#ffffff" stroke="transparent" points="-4,4 -4,-280 5366,-280 5366,4 -4,4"/>
<text text-anchor="start" x="2660.0091" y="-42.4" font-family="sans-serif" font-weight="bold" font-size="14.00" fill="#000000">Legend</text>
<polygon fill="#ffffb3" stroke="transparent" points="2447,-10 2447,-30 2467,-30 2467,-10 2447,-10"/>
<text text-anchor="start" x="2470.629" y="-15.4" font-family="sans-serif" font-size="14.00" fill="#000000"> &#160;Declarations</text>
<polygon fill="#8dd3c7" stroke="transparent" points="2560,-10 2560,-30 2580,-30 2580,-10 2560,-10"/>
<text text-anchor="start" x="2583.7251" y="-15.4" font-family="sans-serif" font-size="14.00" fill="#000000"> &#160;Module</text>
<polygon fill="#80b1d3" stroke="transparent" points="2646,-10 2646,-30 2666,-30 2666,-10 2646,-10"/>
<text text-anchor="start" x="2669.7812" y="-15.4" font-family="sans-serif" font-size="14.00" fill="#000000"> &#160;Bootstrap</text>
<polygon fill="#fdb462" stroke="transparent" points="2743,-10 2743,-30 2763,-30 2763,-10 2743,-10"/>
<text text-anchor="start" x="2766.6732" y="-15.4" font-family="sans-serif" font-size="14.00" fill="#000000"> &#160;Providers</text>
<polygon fill="#fb8072" stroke="transparent" points="2839,-10 2839,-30 2859,-30 2859,-10 2839,-10"/>
<text text-anchor="start" x="2862.7258" y="-15.4" font-family="sans-serif" font-size="14.00" fill="#000000"> &#160;Exports</text>
<g id="clust1" class="cluster">
<title>cluster_AppModule</title>
<polygon fill="none" stroke="#000000" stroke-dasharray="1,5" points="8,-70 8,-268 5354,-268 5354,-70 8,-70"/>
</g>
<g id="clust2" class="cluster">
<title>cluster_AppModule_declarations</title>
<polygon fill="none" stroke="#000000" points="256,-78 256,-130 5346,-130 5346,-78 256,-78"/>
</g>
<g id="clust41" class="cluster">
<title>cluster_AppModule_bootstrap</title>
<polygon fill="none" stroke="#000000" points="2933,-208 2933,-260 3021,-260 3021,-208 2933,-208"/>
</g>
<g id="clust42" class="cluster">
<title>cluster_AppModule_providers</title>
<polygon fill="none" stroke="#000000" points="16,-78 16,-130 248,-130 248,-78 16,-78"/>
</g>
<!-- MyApp -->
<g id="node1" class="node">
<title>MyApp</title>
<polygon fill="#ffffb3" stroke="#000000" points="5337.5529,-122 5278.4471,-122 5278.4471,-86 5337.5529,-86 5337.5529,-122"/>
<text text-anchor="middle" x="5308" y="-99.8" font-family="Times,serif" font-size="14.00" fill="#000000">MyApp</text>
</g>
<!-- AppModule -->
<g id="node37" class="node">
<title>AppModule</title>
<polygon fill="#8dd3c7" stroke="#000000" points="3018.6571,-187 3015.6571,-191 2994.6571,-191 2991.6571,-187 2935.3429,-187 2935.3429,-151 3018.6571,-151 3018.6571,-187"/>
<text text-anchor="middle" x="2977" y="-164.8" font-family="Times,serif" font-size="14.00" fill="#000000">AppModule</text>
</g>
<!-- MyApp&#45;&gt;AppModule -->
<g id="edge1" class="edge">
<title>MyApp&#45;&gt;AppModule</title>
<path fill="none" stroke="#000000" d="M5308,-122.1985C5308,-146.3563 5308,-186 5308,-186 5308,-186 3028.947,-186 3028.947,-186"/>
<polygon fill="#000000" stroke="#000000" points="3028.9471,-182.5001 3018.947,-186 3028.947,-189.5001 3028.9471,-182.5001"/>
</g>
<!-- HomePage -->
<g id="node2" class="node">
<title>HomePage</title>
<polygon fill="#ffffb3" stroke="#000000" points="5260.9248,-122 5183.0752,-122 5183.0752,-86 5260.9248,-86 5260.9248,-122"/>
<text text-anchor="middle" x="5222" y="-99.8" font-family="Times,serif" font-size="14.00" fill="#000000">HomePage</text>
</g>
<!-- HomePage&#45;&gt;AppModule -->
<g id="edge2" class="edge">
<title>HomePage&#45;&gt;AppModule</title>
<path fill="none" stroke="#000000" d="M5222,-122.1532C5222,-145.7566 5222,-184 5222,-184 5222,-184 3028.857,-184 3028.857,-184"/>
<polygon fill="#000000" stroke="#000000" points="3028.8571,-180.5001 3018.857,-184 3028.857,-187.5001 3028.8571,-180.5001"/>
</g>
<!-- LoginPage -->
<g id="node3" class="node">
<title>LoginPage</title>
<polygon fill="#ffffb3" stroke="#000000" points="5165.1558,-122 5088.8442,-122 5088.8442,-86 5165.1558,-86 5165.1558,-122"/>
<text text-anchor="middle" x="5127" y="-99.8" font-family="Times,serif" font-size="14.00" fill="#000000">LoginPage</text>
</g>
<!-- LoginPage&#45;&gt;AppModule -->
<g id="edge3" class="edge">
<title>LoginPage&#45;&gt;AppModule</title>
<path fill="none" stroke="#000000" d="M5127,-122.0908C5127,-145.1328 5127,-182 5127,-182 5127,-182 3028.983,-182 3028.983,-182"/>
<polygon fill="#000000" stroke="#000000" points="3028.9831,-178.5001 3018.983,-182 3028.983,-185.5001 3028.9831,-178.5001"/>
</g>
<!-- PerfilPage -->
<g id="node4" class="node">
<title>PerfilPage</title>
<polygon fill="#ffffb3" stroke="#000000" points="5071.3121,-122 4996.6879,-122 4996.6879,-86 5071.3121,-86 5071.3121,-122"/>
<text text-anchor="middle" x="5034" y="-99.8" font-family="Times,serif" font-size="14.00" fill="#000000">PerfilPage</text>
</g>
<!-- PerfilPage&#45;&gt;AppModule -->
<g id="edge4" class="edge">
<title>PerfilPage&#45;&gt;AppModule</title>
<path fill="none" stroke="#000000" d="M5034,-122.0109C5034,-144.4852 5034,-180 5034,-180 5034,-180 3029.0215,-180 3029.0215,-180"/>
<polygon fill="#000000" stroke="#000000" points="3029.0215,-176.5001 3019.0215,-180 3029.0214,-183.5001 3029.0215,-176.5001"/>
</g>
<!-- InicioAdminPage -->
<g id="node5" class="node">
<title>InicioAdminPage</title>
<polygon fill="#ffffb3" stroke="#000000" points="4978.2563,-122 4863.7437,-122 4863.7437,-86 4978.2563,-86 4978.2563,-122"/>
<text text-anchor="middle" x="4921" y="-99.8" font-family="Times,serif" font-size="14.00" fill="#000000">InicioAdminPage</text>
</g>
<!-- InicioAdminPage&#45;&gt;AppModule -->
<g id="edge5" class="edge">
<title>InicioAdminPage&#45;&gt;AppModule</title>
<path fill="none" stroke="#000000" d="M4921,-122.2921C4921,-144.2057 4921,-178 4921,-178 4921,-178 3028.9557,-178 3028.9557,-178"/>
<polygon fill="#000000" stroke="#000000" points="3028.9557,-174.5001 3018.9557,-178 3028.9557,-181.5001 3028.9557,-174.5001"/>
</g>
<!-- InicioAdministrativoPage -->
<g id="node6" class="node">
<title>InicioAdministrativoPage</title>
<polygon fill="#ffffb3" stroke="#000000" points="4845.1386,-122 4684.8614,-122 4684.8614,-86 4845.1386,-86 4845.1386,-122"/>
<text text-anchor="middle" x="4765" y="-99.8" font-family="Times,serif" font-size="14.00" fill="#000000">InicioAdministrativoPage</text>
</g>
<!-- InicioAdministrativoPage&#45;&gt;AppModule -->
<g id="edge6" class="edge">
<title>InicioAdministrativoPage&#45;&gt;AppModule</title>
<path fill="none" stroke="#000000" d="M4765,-122.1686C4765,-143.498 4765,-176 4765,-176 4765,-176 3028.9988,-176 3028.9988,-176"/>
<polygon fill="#000000" stroke="#000000" points="3028.9988,-172.5001 3018.9988,-176 3028.9987,-179.5001 3028.9988,-172.5001"/>
</g>
<!-- InicioProfesorPage -->
<g id="node7" class="node">
<title>InicioProfesorPage</title>
<polygon fill="#ffffb3" stroke="#000000" points="4666.7921,-122 4543.2079,-122 4543.2079,-86 4666.7921,-86 4666.7921,-122"/>
<text text-anchor="middle" x="4605" y="-99.8" font-family="Times,serif" font-size="14.00" fill="#000000">InicioProfesorPage</text>
</g>
<!-- InicioProfesorPage&#45;&gt;AppModule -->
<g id="edge7" class="edge">
<title>InicioProfesorPage&#45;&gt;AppModule</title>
<path fill="none" stroke="#000000" d="M4605,-122.0267C4605,-142.7672 4605,-174 4605,-174 4605,-174 3028.8789,-174 3028.8789,-174"/>
<polygon fill="#000000" stroke="#000000" points="3028.879,-170.5001 3018.8789,-174 3028.8789,-177.5001 3028.879,-170.5001"/>
</g>
<!-- InicioAlumnoPage -->
<g id="node8" class="node">
<title>InicioAlumnoPage</title>
<polygon fill="#ffffb3" stroke="#000000" points="4524.7562,-122 4403.2438,-122 4403.2438,-86 4524.7562,-86 4524.7562,-122"/>
<text text-anchor="middle" x="4464" y="-99.8" font-family="Times,serif" font-size="14.00" fill="#000000">InicioAlumnoPage</text>
</g>
<!-- InicioAlumnoPage&#45;&gt;AppModule -->
<g id="edge8" class="edge">
<title>InicioAlumnoPage&#45;&gt;AppModule</title>
<path fill="none" stroke="#000000" d="M4464,-122.2228C4464,-142.3652 4464,-172 4464,-172 4464,-172 3028.7145,-172 3028.7145,-172"/>
<polygon fill="#000000" stroke="#000000" points="3028.7145,-168.5001 3018.7145,-172 3028.7144,-175.5001 3028.7145,-168.5001"/>
</g>
<!-- AulaAlumnoPage -->
<g id="node9" class="node">
<title>AulaAlumnoPage</title>
<polygon fill="#ffffb3" stroke="#000000" points="4385.3118,-122 4268.6882,-122 4268.6882,-86 4385.3118,-86 4385.3118,-122"/>
<text text-anchor="middle" x="4327" y="-99.8" font-family="Times,serif" font-size="14.00" fill="#000000">AulaAlumnoPage</text>
</g>
<!-- AulaAlumnoPage&#45;&gt;AppModule -->
<g id="edge9" class="edge">
<title>AulaAlumnoPage&#45;&gt;AppModule</title>
<path fill="none" stroke="#000000" d="M4327,-122.0348C4327,-141.5762 4327,-170 4327,-170 4327,-170 3028.8832,-170 3028.8832,-170"/>
<polygon fill="#000000" stroke="#000000" points="3028.8832,-166.5001 3018.8832,-170 3028.8831,-173.5001 3028.8832,-166.5001"/>
</g>
<!-- AulaProfesorPage -->
<g id="node10" class="node">
<title>AulaProfesorPage</title>
<polygon fill="#ffffb3" stroke="#000000" points="4250.8473,-122 4133.1527,-122 4133.1527,-86 4250.8473,-86 4250.8473,-122"/>
<text text-anchor="middle" x="4192" y="-99.8" font-family="Times,serif" font-size="14.00" fill="#000000">AulaProfesorPage</text>
</g>
<!-- AulaProfesorPage&#45;&gt;AppModule -->
<g id="edge10" class="edge">
<title>AulaProfesorPage&#45;&gt;AppModule</title>
<path fill="none" stroke="#000000" d="M4192,-122.1061C4192,-141.3391 4192,-169 4192,-169 4192,-169 3028.8231,-169 3028.8231,-169"/>
<polygon fill="#000000" stroke="#000000" points="3028.8231,-165.5001 3018.8231,-169 3028.823,-172.5001 3028.8231,-165.5001"/>
</g>
<!-- AulaAdministrativoPage -->
<g id="node11" class="node">
<title>AulaAdministrativoPage</title>
<polygon fill="#ffffb3" stroke="#000000" points="4114.6937,-122 3959.3063,-122 3959.3063,-86 4114.6937,-86 4114.6937,-122"/>
<text text-anchor="middle" x="4037" y="-99.8" font-family="Times,serif" font-size="14.00" fill="#000000">AulaAdministrativoPage</text>
</g>
<!-- AulaAdministrativoPage&#45;&gt;AppModule -->
<g id="edge11" class="edge">
<title>AulaAdministrativoPage&#45;&gt;AppModule</title>
<path fill="none" stroke="#000000" d="M4037,-122.2222C4037,-140.8285 4037,-167 4037,-167 4037,-167 3028.8797,-167 3028.8797,-167"/>
<polygon fill="#000000" stroke="#000000" points="3028.8798,-163.5001 3018.8797,-167 3028.8797,-170.5001 3028.8798,-163.5001"/>
</g>
<!-- MateriasPage -->
<g id="node12" class="node">
<title>MateriasPage</title>
<polygon fill="#ffffb3" stroke="#000000" points="3941.1868,-122 3848.8132,-122 3848.8132,-86 3941.1868,-86 3941.1868,-122"/>
<text text-anchor="middle" x="3895" y="-99.8" font-family="Times,serif" font-size="14.00" fill="#000000">MateriasPage</text>
</g>
<!-- MateriasPage&#45;&gt;AppModule -->
<g id="edge12" class="edge">
<title>MateriasPage&#45;&gt;AppModule</title>
<path fill="none" stroke="#000000" d="M3895,-122.302C3895,-140.2699 3895,-165 3895,-165 3895,-165 3028.83,-165 3028.83,-165"/>
<polygon fill="#000000" stroke="#000000" points="3028.83,-161.5001 3018.83,-165 3028.83,-168.5001 3028.83,-161.5001"/>
</g>
<!-- MateriasProfesorPage -->
<g id="node13" class="node">
<title>MateriasProfesorPage</title>
<polygon fill="#ffffb3" stroke="#000000" points="3830.6107,-122 3691.3893,-122 3691.3893,-86 3830.6107,-86 3830.6107,-122"/>
<text text-anchor="middle" x="3761" y="-99.8" font-family="Times,serif" font-size="14.00" fill="#000000">MateriasProfesorPage</text>
</g>
<!-- MateriasProfesorPage&#45;&gt;AppModule -->
<g id="edge13" class="edge">
<title>MateriasProfesorPage&#45;&gt;AppModule</title>
<path fill="none" stroke="#000000" d="M3761,-122.0225C3761,-139.3734 3761,-163 3761,-163 3761,-163 3028.8741,-163 3028.8741,-163"/>
<polygon fill="#000000" stroke="#000000" points="3028.8741,-159.5001 3018.8741,-163 3028.874,-166.5001 3028.8741,-159.5001"/>
</g>
<!-- CuestionariosPage -->
<g id="node14" class="node">
<title>CuestionariosPage</title>
<polygon fill="#ffffb3" stroke="#000000" points="3673.1994,-122 3552.8006,-122 3552.8006,-86 3673.1994,-86 3673.1994,-122"/>
<text text-anchor="middle" x="3613" y="-99.8" font-family="Times,serif" font-size="14.00" fill="#000000">CuestionariosPage</text>
</g>
<!-- CuestionariosPage&#45;&gt;AppModule -->
<g id="edge14" class="edge">
<title>CuestionariosPage&#45;&gt;AppModule</title>
<path fill="none" stroke="#000000" d="M3613,-122.0352C3613,-138.7344 3613,-161 3613,-161 3613,-161 3028.7297,-161 3028.7297,-161"/>
<polygon fill="#000000" stroke="#000000" points="3028.7298,-157.5001 3018.7297,-161 3028.7297,-164.5001 3028.7298,-157.5001"/>
</g>
<!-- CagarArchivoPage -->
<g id="node15" class="node">
<title>CagarArchivoPage</title>
<polygon fill="#ffffb3" stroke="#000000" points="3535.0116,-122 3412.9884,-122 3412.9884,-86 3535.0116,-86 3535.0116,-122"/>
<text text-anchor="middle" x="3474" y="-99.8" font-family="Times,serif" font-size="14.00" fill="#000000">CagarArchivoPage</text>
</g>
<!-- CagarArchivoPage&#45;&gt;AppModule -->
<g id="edge15" class="edge">
<title>CagarArchivoPage&#45;&gt;AppModule</title>
<path fill="none" stroke="#000000" d="M3474,-122.0091C3474,-138.0494 3474,-159 3474,-159 3474,-159 3028.9456,-159 3028.9456,-159"/>
<polygon fill="#000000" stroke="#000000" points="3028.9456,-155.5001 3018.9456,-159 3028.9456,-162.5001 3028.9456,-155.5001"/>
</g>
<!-- AlumnosPage -->
<g id="node16" class="node">
<title>AlumnosPage</title>
<polygon fill="#ffffb3" stroke="#000000" points="3394.0453,-122 3299.9547,-122 3299.9547,-86 3394.0453,-86 3394.0453,-122"/>
<text text-anchor="middle" x="3347" y="-99.8" font-family="Times,serif" font-size="14.00" fill="#000000">AlumnosPage</text>
</g>
<!-- AlumnosPage&#45;&gt;AppModule -->
<g id="edge16" class="edge">
<title>AlumnosPage&#45;&gt;AppModule</title>
<path fill="none" stroke="#000000" d="M3347,-122.2396C3347,-137.5706 3347,-157 3347,-157 3347,-157 3028.7245,-157 3028.7245,-157"/>
<polygon fill="#000000" stroke="#000000" points="3028.7245,-153.5001 3018.7245,-157 3028.7244,-160.5001 3028.7245,-153.5001"/>
</g>
<!-- MateriaPage -->
<g id="node17" class="node">
<title>MateriaPage</title>
<polygon fill="#ffffb3" stroke="#000000" points="3281.2424,-122 3194.7576,-122 3194.7576,-86 3281.2424,-86 3281.2424,-122"/>
<text text-anchor="middle" x="3238" y="-99.8" font-family="Times,serif" font-size="14.00" fill="#000000">MateriaPage</text>
</g>
<!-- MateriaPage&#45;&gt;AppModule -->
<g id="edge17" class="edge">
<title>MateriaPage&#45;&gt;AppModule</title>
<path fill="none" stroke="#000000" d="M3238,-122.1243C3238,-136.7832 3238,-155 3238,-155 3238,-155 3028.9342,-155 3028.9342,-155"/>
<polygon fill="#000000" stroke="#000000" points="3028.9342,-151.5001 3018.9342,-155 3028.9341,-158.5001 3028.9342,-151.5001"/>
</g>
<!-- EditarPerfilPage -->
<g id="node18" class="node">
<title>EditarPerfilPage</title>
<polygon fill="#ffffb3" stroke="#000000" points="3176.0215,-122 3067.9785,-122 3067.9785,-86 3176.0215,-86 3176.0215,-122"/>
<text text-anchor="middle" x="3122" y="-99.8" font-family="Times,serif" font-size="14.00" fill="#000000">EditarPerfilPage</text>
</g>
<!-- EditarPerfilPage&#45;&gt;AppModule -->
<g id="edge18" class="edge">
<title>EditarPerfilPage&#45;&gt;AppModule</title>
<path fill="none" stroke="#000000" d="M3122,-122.2458C3122,-136.1772 3122,-153 3122,-153 3122,-153 3028.94,-153 3028.94,-153"/>
<polygon fill="#000000" stroke="#000000" points="3028.94,-149.5001 3018.94,-153 3028.94,-156.5001 3028.94,-149.5001"/>
</g>
<!-- DescargarArchivoPage -->
<g id="node19" class="node">
<title>DescargarArchivoPage</title>
<polygon fill="#ffffb3" stroke="#000000" points="3049.8151,-122 2904.1849,-122 2904.1849,-86 3049.8151,-86 3049.8151,-122"/>
<text text-anchor="middle" x="2977" y="-99.8" font-family="Times,serif" font-size="14.00" fill="#000000">DescargarArchivoPage</text>
</g>
<!-- DescargarArchivoPage&#45;&gt;AppModule -->
<g id="edge19" class="edge">
<title>DescargarArchivoPage&#45;&gt;AppModule</title>
<path fill="none" stroke="#000000" d="M2977,-122.1061C2977,-122.1061 2977,-140.991 2977,-140.991"/>
<polygon fill="#000000" stroke="#000000" points="2973.5001,-140.9909 2977,-150.991 2980.5001,-140.991 2973.5001,-140.9909"/>
</g>
<!-- NotificacionPage -->
<g id="node20" class="node">
<title>NotificacionPage</title>
<polygon fill="#ffffb3" stroke="#000000" points="2885.6854,-122 2772.3146,-122 2772.3146,-86 2885.6854,-86 2885.6854,-122"/>
<text text-anchor="middle" x="2829" y="-99.8" font-family="Times,serif" font-size="14.00" fill="#000000">NotificacionPage</text>
</g>
<!-- NotificacionPage&#45;&gt;AppModule -->
<g id="edge20" class="edge">
<title>NotificacionPage&#45;&gt;AppModule</title>
<path fill="none" stroke="#000000" d="M2829,-122.2458C2829,-136.1772 2829,-153 2829,-153 2829,-153 2924.985,-153 2924.985,-153"/>
<polygon fill="#000000" stroke="#000000" points="2924.9851,-156.5001 2934.985,-153 2924.985,-149.5001 2924.9851,-156.5001"/>
</g>
<!-- RealInicioAdministrativoPage -->
<g id="node21" class="node">
<title>RealInicioAdministrativoPage</title>
<polygon fill="#ffffb3" stroke="#000000" points="2754.2948,-122 2567.7052,-122 2567.7052,-86 2754.2948,-86 2754.2948,-122"/>
<text text-anchor="middle" x="2661" y="-99.8" font-family="Times,serif" font-size="14.00" fill="#000000">RealInicioAdministrativoPage</text>
</g>
<!-- RealInicioAdministrativoPage&#45;&gt;AppModule -->
<g id="edge21" class="edge">
<title>RealInicioAdministrativoPage&#45;&gt;AppModule</title>
<path fill="none" stroke="#000000" d="M2661,-122.1243C2661,-136.7832 2661,-155 2661,-155 2661,-155 2925.0376,-155 2925.0376,-155"/>
<polygon fill="#000000" stroke="#000000" points="2925.0377,-158.5001 2935.0376,-155 2925.0376,-151.5001 2925.0377,-158.5001"/>
</g>
<!-- AsignarMateriaPage -->
<g id="node22" class="node">
<title>AsignarMateriaPage</title>
<polygon fill="#ffffb3" stroke="#000000" points="2549.559,-122 2418.441,-122 2418.441,-86 2549.559,-86 2549.559,-122"/>
<text text-anchor="middle" x="2484" y="-99.8" font-family="Times,serif" font-size="14.00" fill="#000000">AsignarMateriaPage</text>
</g>
<!-- AsignarMateriaPage&#45;&gt;AppModule -->
<g id="edge22" class="edge">
<title>AsignarMateriaPage&#45;&gt;AppModule</title>
<path fill="none" stroke="#000000" d="M2484,-122.2396C2484,-137.5706 2484,-157 2484,-157 2484,-157 2924.9671,-157 2924.9671,-157"/>
<polygon fill="#000000" stroke="#000000" points="2924.9671,-160.5001 2934.9671,-157 2924.9671,-153.5001 2924.9671,-160.5001"/>
</g>
<!-- EncuestasPage -->
<g id="node23" class="node">
<title>EncuestasPage</title>
<polygon fill="#ffffb3" stroke="#000000" points="2400.6882,-122 2301.3118,-122 2301.3118,-86 2400.6882,-86 2400.6882,-122"/>
<text text-anchor="middle" x="2351" y="-99.8" font-family="Times,serif" font-size="14.00" fill="#000000">EncuestasPage</text>
</g>
<!-- EncuestasPage&#45;&gt;AppModule -->
<g id="edge23" class="edge">
<title>EncuestasPage&#45;&gt;AppModule</title>
<path fill="none" stroke="#000000" d="M2351,-122.0091C2351,-138.0494 2351,-159 2351,-159 2351,-159 2924.9543,-159 2924.9543,-159"/>
<polygon fill="#000000" stroke="#000000" points="2924.9544,-162.5001 2934.9543,-159 2924.9543,-155.5001 2924.9544,-162.5001"/>
</g>
<!-- EncuestasAltaPage -->
<g id="node24" class="node">
<title>EncuestasAltaPage</title>
<polygon fill="#ffffb3" stroke="#000000" points="2283.7907,-122 2160.2093,-122 2160.2093,-86 2283.7907,-86 2283.7907,-122"/>
<text text-anchor="middle" x="2222" y="-99.8" font-family="Times,serif" font-size="14.00" fill="#000000">EncuestasAltaPage</text>
</g>
<!-- EncuestasAltaPage&#45;&gt;AppModule -->
<g id="edge24" class="edge">
<title>EncuestasAltaPage&#45;&gt;AppModule</title>
<path fill="none" stroke="#000000" d="M2222,-122.0352C2222,-138.7344 2222,-161 2222,-161 2222,-161 2925.3325,-161 2925.3325,-161"/>
<polygon fill="#000000" stroke="#000000" points="2925.3325,-164.5001 2935.3325,-161 2925.3325,-157.5001 2925.3325,-164.5001"/>
</g>
<!-- EncuestasEditarPage -->
<g id="node25" class="node">
<title>EncuestasEditarPage</title>
<polygon fill="#ffffb3" stroke="#000000" points="2142.8976,-122 2009.1024,-122 2009.1024,-86 2142.8976,-86 2142.8976,-122"/>
<text text-anchor="middle" x="2076" y="-99.8" font-family="Times,serif" font-size="14.00" fill="#000000">EncuestasEditarPage</text>
</g>
<!-- EncuestasEditarPage&#45;&gt;AppModule -->
<g id="edge25" class="edge">
<title>EncuestasEditarPage&#45;&gt;AppModule</title>
<path fill="none" stroke="#000000" d="M2076,-122.0225C2076,-139.3734 2076,-163 2076,-163 2076,-163 2925.0511,-163 2925.0511,-163"/>
<polygon fill="#000000" stroke="#000000" points="2925.0512,-166.5001 2935.0511,-163 2925.0511,-159.5001 2925.0512,-166.5001"/>
</g>
<!-- TomarListaPage -->
<g id="node26" class="node">
<title>TomarListaPage</title>
<polygon fill="#ffffb3" stroke="#000000" points="1991.0242,-122 1882.9758,-122 1882.9758,-86 1991.0242,-86 1991.0242,-122"/>
<text text-anchor="middle" x="1937" y="-99.8" font-family="Times,serif" font-size="14.00" fill="#000000">TomarListaPage</text>
</g>
<!-- TomarListaPage&#45;&gt;AppModule -->
<g id="edge26" class="edge">
<title>TomarListaPage&#45;&gt;AppModule</title>
<path fill="none" stroke="#000000" d="M1937,-122.302C1937,-140.2699 1937,-165 1937,-165 1937,-165 2925.2664,-165 2925.2664,-165"/>
<polygon fill="#000000" stroke="#000000" points="2925.2664,-168.5001 2935.2664,-165 2925.2664,-161.5001 2925.2664,-168.5001"/>
</g>
<!-- RespuestaEncuestaPage -->
<g id="node27" class="node">
<title>RespuestaEncuestaPage</title>
<polygon fill="#ffffb3" stroke="#000000" points="1864.0044,-122 1713.9956,-122 1713.9956,-86 1864.0044,-86 1864.0044,-122"/>
<text text-anchor="middle" x="1789" y="-99.8" font-family="Times,serif" font-size="14.00" fill="#000000">RespuestaEncuestaPage</text>
</g>
<!-- RespuestaEncuestaPage&#45;&gt;AppModule -->
<g id="edge27" class="edge">
<title>RespuestaEncuestaPage&#45;&gt;AppModule</title>
<path fill="none" stroke="#000000" d="M1789,-122.2222C1789,-140.8285 1789,-167 1789,-167 1789,-167 2925.0674,-167 2925.0674,-167"/>
<polygon fill="#000000" stroke="#000000" points="2925.0674,-170.5001 2935.0674,-167 2925.0674,-163.5001 2925.0674,-170.5001"/>
</g>
<!-- MateriasAdministrativoPage -->
<g id="node28" class="node">
<title>MateriasAdministrativoPage</title>
<polygon fill="#ffffb3" stroke="#000000" points="1695.4566,-122 1518.5434,-122 1518.5434,-86 1695.4566,-86 1695.4566,-122"/>
<text text-anchor="middle" x="1607" y="-99.8" font-family="Times,serif" font-size="14.00" fill="#000000">MateriasAdministrativoPage</text>
</g>
<!-- MateriasAdministrativoPage&#45;&gt;AppModule -->
<g id="edge28" class="edge">
<title>MateriasAdministrativoPage&#45;&gt;AppModule</title>
<path fill="none" stroke="#000000" d="M1607,-122.1061C1607,-141.3391 1607,-169 1607,-169 1607,-169 2925.2506,-169 2925.2506,-169"/>
<polygon fill="#000000" stroke="#000000" points="2925.2506,-172.5001 2935.2506,-169 2925.2505,-165.5001 2925.2506,-172.5001"/>
</g>
<!-- QrencuestaPage -->
<g id="node29" class="node">
<title>QrencuestaPage</title>
<polygon fill="#ffffb3" stroke="#000000" points="1500.1727,-122 1393.8273,-122 1393.8273,-86 1500.1727,-86 1500.1727,-122"/>
<text text-anchor="middle" x="1447" y="-99.8" font-family="Times,serif" font-size="14.00" fill="#000000">QrencuestaPage</text>
</g>
<!-- QrencuestaPage&#45;&gt;AppModule -->
<g id="edge29" class="edge">
<title>QrencuestaPage&#45;&gt;AppModule</title>
<path fill="none" stroke="#000000" d="M1447,-122.0348C1447,-141.5762 1447,-170 1447,-170 1447,-170 2925.2827,-170 2925.2827,-170"/>
<polygon fill="#000000" stroke="#000000" points="2925.2827,-173.5001 2935.2827,-170 2925.2827,-166.5001 2925.2827,-173.5001"/>
</g>
<!-- AbmAlumnosPage -->
<g id="node30" class="node">
<title>AbmAlumnosPage</title>
<polygon fill="#ffffb3" stroke="#000000" points="1376.0423,-122 1253.9577,-122 1253.9577,-86 1376.0423,-86 1376.0423,-122"/>
<text text-anchor="middle" x="1315" y="-99.8" font-family="Times,serif" font-size="14.00" fill="#000000">AbmAlumnosPage</text>
</g>
<!-- AbmAlumnosPage&#45;&gt;AppModule -->
<g id="edge30" class="edge">
<title>AbmAlumnosPage&#45;&gt;AppModule</title>
<path fill="none" stroke="#000000" d="M1315,-122.2228C1315,-142.3652 1315,-172 1315,-172 1315,-172 2925.0854,-172 2925.0854,-172"/>
<polygon fill="#000000" stroke="#000000" points="2925.0854,-175.5001 2935.0854,-172 2925.0854,-168.5001 2925.0854,-175.5001"/>
</g>
<!-- AsignarMateriaAlumnoPage -->
<g id="node31" class="node">
<title>AsignarMateriaAlumnoPage</title>
<polygon fill="#ffffb3" stroke="#000000" points="1235.4468,-122 1058.5532,-122 1058.5532,-86 1235.4468,-86 1235.4468,-122"/>
<text text-anchor="middle" x="1147" y="-99.8" font-family="Times,serif" font-size="14.00" fill="#000000">AsignarMateriaAlumnoPage</text>
</g>
<!-- AsignarMateriaAlumnoPage&#45;&gt;AppModule -->
<g id="edge31" class="edge">
<title>AsignarMateriaAlumnoPage&#45;&gt;AppModule</title>
<path fill="none" stroke="#000000" d="M1147,-122.0267C1147,-142.7672 1147,-174 1147,-174 1147,-174 2925.3395,-174 2925.3395,-174"/>
<polygon fill="#000000" stroke="#000000" points="2925.3396,-177.5001 2935.3395,-174 2925.3395,-170.5001 2925.3396,-177.5001"/>
</g>
<!-- QrEncuestasPage -->
<g id="node32" class="node">
<title>QrEncuestasPage</title>
<polygon fill="#ffffb3" stroke="#000000" points="1040.9552,-122 927.0448,-122 927.0448,-86 1040.9552,-86 1040.9552,-122"/>
<text text-anchor="middle" x="984" y="-99.8" font-family="Times,serif" font-size="14.00" fill="#000000">QrEncuestasPage</text>
</g>
<!-- QrEncuestasPage&#45;&gt;AppModule -->
<g id="edge32" class="edge">
<title>QrEncuestasPage&#45;&gt;AppModule</title>
<path fill="none" stroke="#000000" d="M984,-122.1686C984,-143.498 984,-176 984,-176 984,-176 2924.9135,-176 2924.9135,-176"/>
<polygon fill="#000000" stroke="#000000" points="2924.9136,-179.5001 2934.9135,-176 2924.9135,-172.5001 2924.9136,-179.5001"/>
</g>
<!-- ResultadosVotacionPage -->
<g id="node33" class="node">
<title>ResultadosVotacionPage</title>
<polygon fill="#ffffb3" stroke="#000000" points="908.965,-122 753.035,-122 753.035,-86 908.965,-86 908.965,-122"/>
<text text-anchor="middle" x="831" y="-99.8" font-family="Times,serif" font-size="14.00" fill="#000000">ResultadosVotacionPage</text>
</g>
<!-- ResultadosVotacionPage&#45;&gt;AppModule -->
<g id="edge33" class="edge">
<title>ResultadosVotacionPage&#45;&gt;AppModule</title>
<path fill="none" stroke="#000000" d="M831,-122.2921C831,-144.2057 831,-178 831,-178 831,-178 2925.0951,-178 2925.0951,-178"/>
<polygon fill="#000000" stroke="#000000" points="2925.0951,-181.5001 2935.0951,-178 2925.095,-174.5001 2925.0951,-181.5001"/>
</g>
<!-- TutorialPage -->
<g id="node34" class="node">
<title>TutorialPage</title>
<polygon fill="#ffffb3" stroke="#000000" points="735.312,-122 646.688,-122 646.688,-86 735.312,-86 735.312,-122"/>
<text text-anchor="middle" x="691" y="-99.8" font-family="Times,serif" font-size="14.00" fill="#000000">TutorialPage</text>
</g>
<!-- TutorialPage&#45;&gt;AppModule -->
<g id="edge34" class="edge">
<title>TutorialPage&#45;&gt;AppModule</title>
<path fill="none" stroke="#000000" d="M691,-122.0109C691,-144.4852 691,-180 691,-180 691,-180 2924.876,-180 2924.876,-180"/>
<polygon fill="#000000" stroke="#000000" points="2924.8761,-183.5001 2934.876,-180 2924.876,-176.5001 2924.8761,-183.5001"/>
</g>
<!-- ButtonRenderComponent -->
<g id="node35" class="node">
<title>ButtonRenderComponent</title>
<polygon fill="#ffffb3" stroke="#000000" points="628.8766,-122 469.1234,-122 469.1234,-86 628.8766,-86 628.8766,-122"/>
<text text-anchor="middle" x="549" y="-99.8" font-family="Times,serif" font-size="14.00" fill="#000000">ButtonRenderComponent</text>
</g>
<!-- ButtonRenderComponent&#45;&gt;AppModule -->
<g id="edge35" class="edge">
<title>ButtonRenderComponent&#45;&gt;AppModule</title>
<path fill="none" stroke="#000000" d="M549,-122.0908C549,-145.1328 549,-182 549,-182 549,-182 2925.1133,-182 2925.1133,-182"/>
<polygon fill="#000000" stroke="#000000" points="2925.1133,-185.5001 2935.1133,-182 2925.1133,-178.5001 2925.1133,-185.5001"/>
</g>
<!-- DesasignarMateriaComponent -->
<g id="node36" class="node">
<title>DesasignarMateriaComponent</title>
<polygon fill="#ffffb3" stroke="#000000" points="451.5534,-122 264.4466,-122 264.4466,-86 451.5534,-86 451.5534,-122"/>
<text text-anchor="middle" x="358" y="-99.8" font-family="Times,serif" font-size="14.00" fill="#000000">DesasignarMateriaComponent</text>
</g>
<!-- DesasignarMateriaComponent&#45;&gt;AppModule -->
<g id="edge36" class="edge">
<title>DesasignarMateriaComponent&#45;&gt;AppModule</title>
<path fill="none" stroke="#000000" d="M358,-122.1532C358,-145.7566 358,-184 358,-184 358,-184 2925.333,-184 2925.333,-184"/>
<polygon fill="#000000" stroke="#000000" points="2925.333,-187.5001 2935.333,-184 2925.3329,-180.5001 2925.333,-187.5001"/>
</g>
<!-- IonicApp  -->
<g id="node38" class="node">
<title>IonicApp </title>
<polygon fill="#80b1d3" stroke="#000000" points="3013.3734,-252 2940.6266,-252 2940.6266,-216 3013.3734,-216 3013.3734,-252"/>
<text text-anchor="middle" x="2977" y="-229.8" font-family="Times,serif" font-size="14.00" fill="#000000">IonicApp </text>
</g>
<!-- AppModule&#45;&gt;IonicApp  -->
<g id="edge37" class="edge">
<title>AppModule&#45;&gt;IonicApp </title>
<path fill="none" stroke="#000000" stroke-dasharray="1,5" d="M2977,-187.1061C2977,-187.1061 2977,-205.991 2977,-205.991"/>
<polygon fill="#000000" stroke="#000000" points="2973.5001,-205.9909 2977,-215.991 2980.5001,-205.991 2973.5001,-205.9909"/>
</g>
<!-- FireBaseServiceProvider -->
<g id="node39" class="node">
<title>FireBaseServiceProvider</title>
<ellipse fill="#fdb462" stroke="#000000" cx="132" cy="-104" rx="107.6366" ry="18"/>
<text text-anchor="middle" x="132" y="-99.8" font-family="Times,serif" font-size="14.00" fill="#000000">FireBaseServiceProvider</text>
</g>
<!-- FireBaseServiceProvider&#45;&gt;AppModule -->
<g id="edge38" class="edge">
<title>FireBaseServiceProvider&#45;&gt;AppModule</title>
<path fill="none" stroke="#000000" d="M132,-122.1985C132,-146.3563 132,-186 132,-186 132,-186 2925.1319,-186 2925.1319,-186"/>
<polygon fill="#000000" stroke="#000000" points="2925.132,-189.5001 2935.1319,-186 2925.1319,-182.5001 2925.132,-189.5001"/>
</g>
</g>
</svg>
